Blackout Two AM.ufo
<glyph name="space" format="1">
  <advance width="285"/>
  <unicode hex="0020"/>
  <outline>
    <contour>
      <point x="-9" y="891" type="line"/>
      <point x="303" y="891" type="line"/>
      <point x="303" y="-155" type="line"/>
      <point x="-9" y="-155" type="line"/>
    </contour>
  </outline>
</glyph>
<glyph name="exclam" format="1">
  <advance width="279"/>
  <unicode hex="0021"/>
  <outline>
    <contour>
      <point x="206" y="0" type="line"/>
      <point x="206" y="148" type="line"/>
      <point x="75" y="148" type="line"/>
      <point x="75" y="0" type="line"/>
    </contour>
    <contour>
      <point x="226" y="744" type="line"/>
      <point x="55" y="744" type="line"/>
      <point x="75" y="227" type="line"/>
      <point x="206" y="227" type="line"/>
    </contour>
    <contour>
      <point x="-9" y="891" type="line"/>
      <point x="293" y="891" type="line"/>
      <point x="293" y="-155" type="line"/>
      <point x="-9" y="-155" type="line"/>
    </contour>
  </outline>
</glyph>
<glyph name="numbersign" format="1">
  <advance width="835"/>
  <unicode hex="0023"/>
  <outline>
    <contour>
      <point x="-9" y="891" type="line"/>
      <point x="843" y="891" type="line"/>
      <point x="843" y="-155" type="line"/>
      <point x="-9" y="-155" type="line"/>
    </contour>
    <contour>
      <point x="491" y="744" type="line"/>
      <point x="478" y="583" type="line"/>
      <point x="386" y="583" type="line"/>
      <point x="399" y="744" type="line"/>
      <point x="231" y="744" type="line"/>
      <point x="218" y="583" type="line"/>
      <point x="95" y="583" type="line"/>
      <point x="80" y="415" type="line"/>
      <point x="204" y="415" type="line"/>
      <point x="199" y="353" type="line"/>
      <point x="75" y="353" type="line"/>
      <point x="60" y="185" type="line"/>
      <point x="186" y="185" type="line"/>
      <point x="171" y="0" type="line"/>
      <point x="339" y="0" type="line"/>
      <point x="354" y="185" type="line"/>
      <point x="446" y="185" type="line"/>
      <point x="431" y="0" type="line"/>
      <point x="599" y="0" type="line"/>
      <point x="614" y="185" type="line"/>
      <point x="754" y="185" type="line"/>
      <point x="769" y="353" type="line"/>
      <point x="627" y="353" type="line"/>
      <point x="632" y="415" type="line"/>
      <point x="774" y="415" type="line"/>
      <point x="789" y="583" type="line"/>
      <point x="646" y="583" type="line"/>
      <point x="659" y="744" type="line"/>
    </contour>
    <contour>
      <point x="372" y="415" type="line"/>
      <point x="464" y="415" type="line"/>
      <point x="459" y="353" type="line"/>
      <point x="367" y="353" type="line"/>
    </contour>
  </outline>
</glyph>
<glyph name="dollar" format="1">
  <advance width="495"/>
  <unicode hex="0024"/>
  <outline>
    <contour>
      <point x="246" y="462" type="line"/>
      <point x="230" y="465"/>
      <point x="218" y="479"/>
      <point x="218" y="495" type="curve" smooth="yes"/>
      <point x="218" y="514"/>
      <point x="233" y="530"/>
      <point x="252" y="530" type="curve" smooth="yes"/>
      <point x="271" y="530"/>
      <point x="286" y="514"/>
      <point x="286" y="495" type="curve"/>
      <point x="452" y="495" type="line"/>
      <point x="452" y="572"/>
      <point x="410" y="638"/>
      <point x="346" y="673" type="curve"/>
      <point x="346" y="749" type="line"/>
      <point x="178" y="749" type="line"/>
      <point x="178" y="682" type="line"/>
      <point x="103" y="651"/>
      <point x="52" y="580"/>
      <point x="52" y="495" type="curve" smooth="yes"/>
      <point x="52" y="440"/>
      <point x="75" y="390"/>
      <point x="111" y="354" type="curve" smooth="yes"/>
      <point x="147" y="318"/>
      <point x="197" y="295"/>
      <point x="252" y="295" type="curve" smooth="yes"/>
      <point x="258" y="295" type="line"/>
      <point x="274" y="292"/>
      <point x="286" y="279"/>
      <point x="286" y="262" type="curve" smooth="yes"/>
      <point x="286" y="243"/>
      <point x="271" y="228"/>
      <point x="252" y="228" type="curve" smooth="yes"/>
      <point x="233" y="228"/>
      <point x="218" y="243"/>
      <point x="218" y="262" type="curve"/>
      <point x="52" y="262" type="line"/>
      <point x="52" y="219"/>
      <point x="66" y="181"/>
      <point x="88" y="149" type="curve" smooth="yes"/>
      <point x="110" y="116"/>
      <point x="141" y="91"/>
      <point x="178" y="76" type="curve"/>
      <point x="178" y="0" type="line"/>
      <point x="346" y="0" type="line"/>
      <point x="346" y="85" type="line"/>
      <point x="410" y="120"/>
      <point x="452" y="185"/>
      <point x="452" y="262" type="curve" smooth="yes"/>
      <point x="452" y="317"/>
      <point x="429" y="367"/>
      <point x="393" y="403" type="curve" smooth="yes"/>
      <point x="357" y="439"/>
      <point x="307" y="462"/>
      <point x="252" y="462" type="curve" smooth="yes"/>
    </contour>
    <contour>
      <point x="-9" y="891" type="line"/>
      <point x="500" y="891" type="line"/>
      <point x="500" y="-155" type="line"/>
      <point x="-9" y="-155" type="line"/>
    </contour>
  </outline>
</glyph>
<glyph name="percent" format="1">
  <advance width="796"/>
  <unicode hex="0025"/>
  <outline>
    <contour>
      <point x="524" y="744" type="line"/>
      <point x="87" y="0" type="line"/>
      <point x="255" y="0" type="line"/>
      <point x="692" y="744" type="line"/>
    </contour>
    <contour>
      <point x="285" y="534"/>
      <point x="272" y="565"/>
      <point x="250" y="587" type="curve" smooth="yes"/>
      <point x="228" y="609"/>
      <point x="198" y="622"/>
      <point x="165" y="622" type="curve" smooth="yes"/>
      <point x="132" y="622"/>
      <point x="102" y="609"/>
      <point x="80" y="587" type="curve" smooth="yes"/>
      <point x="58" y="565"/>
      <point x="44" y="534"/>
      <point x="44" y="501" type="curve" smooth="yes"/>
      <point x="44" y="468"/>
      <point x="58" y="438"/>
      <point x="80" y="416" type="curve" smooth="yes"/>
      <point x="102" y="394"/>
      <point x="132" y="380"/>
      <point x="165" y="380" type="curve" smooth="yes"/>
      <point x="198" y="380"/>
      <point x="228" y="394"/>
      <point x="250" y="416" type="curve" smooth="yes"/>
      <point x="272" y="438"/>
      <point x="285" y="468"/>
      <point x="285" y="501" type="curve" smooth="yes"/>
    </contour>
    <contour>
      <point x="756" y="290"/>
      <point x="743" y="320"/>
      <point x="721" y="342" type="curve" smooth="yes"/>
      <point x="699" y="364"/>
      <point x="668" y="377"/>
      <point x="635" y="377" type="curve" smooth="yes"/>
      <point x="602" y="377"/>
      <point x="572" y="364"/>
      <point x="550" y="342" type="curve" smooth="yes"/>
      <point x="528" y="320"/>
      <point x="514" y="290"/>
      <point x="514" y="257" type="curve" smooth="yes"/>
      <point x="514" y="224"/>
      <point x="528" y="194"/>
      <point x="550" y="172" type="curve" smooth="yes"/>
      <point x="572" y="150"/>
      <point x="602" y="136"/>
      <point x="635" y="136" type="curve" smooth="yes"/>
      <point x="668" y="136"/>
      <point x="699" y="150"/>
      <point x="721" y="172" type="curve" smooth="yes"/>
      <point x="743" y="194"/>
      <point x="756" y="224"/>
      <point x="756" y="257" type="curve" smooth="yes"/>
    </contour>
    <contour>
      <point x="-9" y="891" type="line"/>
      <point x="801" y="891" type="line"/>
      <point x="801" y="-155" type="line"/>
      <point x="-9" y="-155" type="line"/>
    </contour>
  </outline>
</glyph>
<glyph name="ampersand" format="1">
  <advance width="754"/>
  <unicode hex="0026"/>
  <outline>
    <contour>
      <point x="598" y="388" type="line"/>
      <point x="500" y="291" type="line"/>
      <point x="387" y="405" type="line"/>
      <point x="444" y="433"/>
      <point x="483" y="492"/>
      <point x="483" y="560" type="curve" smooth="yes"/>
      <point x="483" y="608"/>
      <point x="464" y="651"/>
      <point x="433" y="683" type="curve" smooth="yes"/>
      <point x="401" y="714"/>
      <point x="358" y="733"/>
      <point x="310" y="733" type="curve" smooth="yes"/>
      <point x="262" y="733"/>
      <point x="219" y="714"/>
      <point x="187" y="683" type="curve" smooth="yes"/>
      <point x="155" y="651"/>
      <point x="136" y="608"/>
      <point x="136" y="560" type="curve" smooth="yes"/>
      <point x="136" y="520"/>
      <point x="148" y="485"/>
      <point x="171" y="454" type="curve"/>
      <point x="104" y="410"/>
      <point x="61" y="335"/>
      <point x="61" y="248" type="curve" smooth="yes"/>
      <point x="61" y="180"/>
      <point x="89" y="117"/>
      <point x="134" y="73" type="curve" smooth="yes"/>
      <point x="179" y="28"/>
      <point x="242" y="0"/>
      <point x="310" y="0" type="curve" smooth="yes"/>
      <point x="386" y="0"/>
      <point x="451" y="34"/>
      <point x="498" y="87" type="curve"/>
      <point x="589" y="-4" type="line"/>
      <point x="692" y="99" type="line"/>
      <point x="600" y="192" type="line"/>
      <point x="697" y="288" type="line"/>
    </contour>
    <contour>
      <point x="-9" y="891" type="line"/>
      <point x="759" y="891" type="line"/>
      <point x="759" y="-155" type="line"/>
      <point x="-9" y="-155" type="line"/>
    </contour>
  </outline>
</glyph>
<glyph name="quotesingle" format="1">
  <advance width="205"/>
  <unicode hex="0027"/>
  <outline>
    <contour>
      <point x="50" y="744" type="line"/>
      <point x="60" y="607" type="line"/>
      <point x="141" y="607" type="line"/>
      <point x="151" y="744" type="line"/>
    </contour>
    <contour>
      <point x="-9" y="891" type="line"/>
      <point x="211" y="891" type="line"/>
      <point x="211" y="-155" type="line"/>
      <point x="-9" y="-155" type="line"/>
    </contour>
  </outline>
</glyph>
<glyph name="parenleft" format="1">
  <advance width="375"/>
  <unicode hex="0028"/>
  <outline>
    <contour>
      <point x="149" y="744" type="line"/>
      <point x="76" y="616"/>
      <point x="49" y="491"/>
      <point x="48" y="381" type="curve" smooth="yes"/>
      <point x="47" y="271"/>
      <point x="71" y="175"/>
      <point x="95" y="108" type="curve" smooth="yes"/>
      <point x="107" y="74"/>
      <point x="119" y="48"/>
      <point x="130" y="29" type="curve" smooth="yes"/>
      <point x="141" y="10"/>
      <point x="147" y="0"/>
      <point x="149" y="0" type="curve" smooth="yes"/>
      <point x="327" y="0" type="line"/>
      <point x="280" y="71"/>
      <point x="246" y="146"/>
      <point x="226" y="227" type="curve" smooth="yes"/>
      <point x="209" y="296"/>
      <point x="201" y="377"/>
      <point x="214" y="465" type="curve" smooth="yes"/>
      <point x="226" y="552"/>
      <point x="259" y="647"/>
      <point x="327" y="744" type="curve"/>
    </contour>
    <contour>
      <point x="-9" y="891" type="line"/>
      <point x="383" y="891" type="line"/>
      <point x="383" y="-155" type="line"/>
      <point x="-9" y="-155" type="line"/>
    </contour>
  </outline>
</glyph>
<glyph name="parenright" format="1">
  <advance width="375"/>
  <unicode hex="0029"/>
  <outline>
    <contour>
      <point x="233" y="0" type="line"/>
      <point x="306" y="128"/>
      <point x="333" y="254"/>
      <point x="334" y="364" type="curve" smooth="yes"/>
      <point x="335" y="474"/>
      <point x="311" y="569"/>
      <point x="287" y="637" type="curve" smooth="yes"/>
      <point x="275" y="670"/>
      <point x="264" y="697"/>
      <point x="253" y="716" type="curve" smooth="yes"/>
      <point x="242" y="735"/>
      <point x="235" y="744"/>
      <point x="233" y="744" type="curve" smooth="yes"/>
      <point x="55" y="744" type="line"/>
      <point x="102" y="673"/>
      <point x="136" y="598"/>
      <point x="156" y="517" type="curve" smooth="yes"/>
      <point x="173" y="448"/>
      <point x="181" y="367"/>
      <point x="169" y="279" type="curve" smooth="yes"/>
      <point x="156" y="191"/>
      <point x="122" y="96"/>
      <point x="55" y="0" type="curve"/>
    </contour>
    <contour>
      <point x="-9" y="891" type="line"/>
      <point x="383" y="891" type="line"/>
      <point x="383" y="-155" type="line"/>
      <point x="-9" y="-155" type="line"/>
    </contour>
  </outline>
</glyph>
<glyph name="asterisk" format="1">
  <advance width="505"/>
  <unicode hex="002A"/>
  <outline>
    <contour>
      <point x="422" y="668" type="line"/>
      <point x="306" y="637" type="line"/>
      <point x="306" y="742" type="line"/>
      <point x="196" y="742" type="line"/>
      <point x="196" y="638" type="line"/>
      <point x="82" y="668" type="line"/>
      <point x="54" y="562" type="line"/>
      <point x="154" y="535" type="line"/>
      <point x="81" y="462" type="line"/>
      <point x="159" y="385" type="line"/>
      <point x="252" y="479" type="line"/>
      <point x="344" y="387" type="line"/>
      <point x="421" y="465" type="line"/>
      <point x="351" y="535" type="line"/>
      <point x="450" y="562" type="line"/>
    </contour>
    <contour>
      <point x="-9" y="891" type="line"/>
      <point x="513" y="891" type="line"/>
      <point x="513" y="-155" type="line"/>
      <point x="-9" y="-155" type="line"/>
    </contour>
  </outline>
</glyph>
<glyph name="plus" format="1">
  <advance width="653"/>
  <unicode hex="002B"/>
  <outline>
    <contour>
      <point x="405" y="468" type="line"/>
      <point x="405" y="642" type="line"/>
      <point x="237" y="642" type="line"/>
      <point x="237" y="468" type="line"/>
      <point x="62" y="468" type="line"/>
      <point x="62" y="300" type="line"/>
      <point x="237" y="300" type="line"/>
      <point x="237" y="125" type="line"/>
      <point x="405" y="125" type="line"/>
      <point x="405" y="300" type="line"/>
      <point x="580" y="300" type="line"/>
      <point x="580" y="468" type="line"/>
    </contour>
    <contour>
      <point x="-9" y="891" type="line"/>
      <point x="662" y="891" type="line"/>
      <point x="662" y="-155" type="line"/>
      <point x="-9" y="-155" type="line"/>
    </contour>
  </outline>
</glyph>
<glyph name="comma" format="1">
  <advance width="298"/>
  <unicode hex="002C"/>
  <outline>
    <contour>
      <point x="61" y="138" type="line"/>
      <point x="61" y="0" type="line"/>
      <point x="125" y="0" type="line"/>
      <point x="102" y="-73" type="line"/>
      <point x="168" y="-73" type="line"/>
      <point x="198" y="0" type="line"/>
      <point x="198" y="138" type="line"/>
    </contour>
    <contour>
      <point x="-9" y="891" type="line"/>
      <point x="303" y="891" type="line"/>
      <point x="303" y="-155" type="line"/>
      <point x="-9" y="-155" type="line"/>
    </contour>
  </outline>
</glyph>
<glyph name="hyphen" format="1">
  <advance width="641"/>
  <unicode hex="002D"/>
  <outline>
    <contour>
      <point x="577" y="301" type="line"/>
      <point x="577" y="469" type="line"/>
      <point x="60" y="469" type="line"/>
      <point x="60" y="301" type="line"/>
    </contour>
    <contour>
      <point x="-9" y="891" type="line"/>
      <point x="653" y="891" type="line"/>
      <point x="653" y="-155" type="line"/>
      <point x="-9" y="-155" type="line"/>
    </contour>
  </outline>
</glyph>
<glyph name="period" format="1">
  <advance width="315"/>
  <unicode hex="002E"/>
  <outline>
    <contour>
      <point x="220" y="0" type="line"/>
      <point x="220" y="138" type="line"/>
      <point x="83" y="138" type="line"/>
      <point x="83" y="0" type="line"/>
    </contour>
    <contour>
      <point x="-9" y="891" type="line"/>
      <point x="323" y="891" type="line"/>
      <point x="323" y="-155" type="line"/>
      <point x="-9" y="-155" type="line"/>
    </contour>
  </outline>
</glyph>
<glyph name="slash" format="1">
  <advance width="486"/>
  <unicode hex="002F"/>
  <outline>
    <contour>
      <point x="448" y="744" type="line"/>
      <point x="280" y="744" type="line"/>
      <point x="50" y="0" type="line"/>
      <point x="218" y="0" type="line"/>
    </contour>
    <contour>
      <point x="-9" y="891" type="line"/>
      <point x="493" y="891" type="line"/>
      <point x="493" y="-155" type="line"/>
      <point x="-9" y="-155" type="line"/>
    </contour>
  </outline>
</glyph>
<glyph name="zero" format="1">
  <advance width="549"/>
  <unicode hex="0030"/>
  <outline>
    <contour>
      <point x="507" y="220" type="line" smooth="yes"/>
      <point x="507" y="224"/>
      <point x="507" y="228"/>
      <point x="508" y="232" type="curve"/>
      <point x="508" y="236"/>
      <point x="508" y="240"/>
      <point x="508" y="243" type="curve" smooth="yes"/>
      <point x="508" y="500" type="line" smooth="yes"/>
      <point x="508" y="503"/>
      <point x="508" y="507"/>
      <point x="508" y="512" type="curve"/>
      <point x="507" y="516"/>
      <point x="507" y="520"/>
      <point x="507" y="524" type="curve"/>
      <point x="508" y="524" type="line"/>
      <point x="507" y="524" type="line"/>
      <point x="507" y="525" type="line" smooth="yes"/>
      <point x="507" y="588"/>
      <point x="484" y="642"/>
      <point x="444" y="682" type="curve" smooth="yes"/>
      <point x="404" y="721"/>
      <point x="347" y="744"/>
      <point x="279" y="744" type="curve" smooth="yes"/>
      <point x="210" y="744"/>
      <point x="152" y="721"/>
      <point x="112" y="682" type="curve" smooth="yes"/>
      <point x="72" y="642"/>
      <point x="49" y="588"/>
      <point x="49" y="525" type="curve" smooth="yes"/>
      <point x="49" y="208" type="line" smooth="yes"/>
      <point x="49" y="152"/>
      <point x="73" y="100"/>
      <point x="114" y="62" type="curve" smooth="yes"/>
      <point x="154" y="24"/>
      <point x="212" y="0"/>
      <point x="279" y="0" type="curve" smooth="yes"/>
      <point x="347" y="0"/>
      <point x="404" y="23"/>
      <point x="444" y="62" type="curve" smooth="yes"/>
      <point x="484" y="101"/>
      <point x="507" y="155"/>
      <point x="507" y="218" type="curve"/>
      <point x="508" y="218" type="line"/>
      <point x="508" y="219"/>
      <point x="508" y="219"/>
      <point x="507" y="219" type="curve"/>
    </contour>
    <contour>
      <point x="-9" y="891" type="line"/>
      <point x="556" y="891" type="line"/>
      <point x="556" y="-155" type="line"/>
      <point x="-9" y="-155" type="line"/>
    </contour>
  </outline>
</glyph>
<glyph name="one" format="1">
  <advance width="399"/>
  <unicode hex="0031"/>
  <outline>
    <contour>
      <point x="162" y="744" type="line"/>
      <point x="162" y="744" type="line"/>
      <point x="162" y="744" type="line"/>
      <point x="162" y="744" type="line"/>
      <point x="16" y="591" type="line"/>
      <point x="135" y="472" type="line"/>
      <point x="162" y="508" type="line"/>
      <point x="162" y="0" type="line"/>
      <point x="330" y="0" type="line"/>
      <point x="330" y="744" type="line"/>
    </contour>
    <contour>
      <point x="-9" y="891" type="line"/>
      <point x="404" y="891" type="line"/>
      <point x="404" y="-155" type="line"/>
      <point x="-9" y="-155" type="line"/>
    </contour>
  </outline>
</glyph>
<glyph name="two" format="1">
  <advance width="568"/>
  <unicode hex="0032"/>
  <outline>
    <contour>
      <point x="446" y="354" type="line" smooth="yes"/>
      <point x="489" y="399"/>
      <point x="513" y="450"/>
      <point x="513" y="514" type="curve" smooth="yes"/>
      <point x="513" y="563"/>
      <point x="499" y="607"/>
      <point x="471" y="647" type="curve" smooth="yes"/>
      <point x="443" y="687"/>
      <point x="404" y="716"/>
      <point x="357" y="732" type="curve" smooth="yes"/>
      <point x="334" y="740"/>
      <point x="309" y="744"/>
      <point x="283" y="744" type="curve" smooth="yes"/>
      <point x="220" y="744"/>
      <point x="164" y="719"/>
      <point x="124" y="677" type="curve" smooth="yes"/>
      <point x="84" y="635"/>
      <point x="60" y="577"/>
      <point x="60" y="514" type="curve"/>
      <point x="219" y="514" type="line"/>
      <point x="219" y="527"/>
      <point x="224" y="545"/>
      <point x="234" y="559" type="curve" smooth="yes"/>
      <point x="244" y="573"/>
      <point x="261" y="582"/>
      <point x="286" y="582" type="curve" smooth="yes"/>
      <point x="314" y="582"/>
      <point x="335" y="557"/>
      <point x="343" y="532" type="curve"/>
      <point x="344" y="525"/>
      <point x="345" y="519"/>
      <point x="345" y="514" type="curve" smooth="yes"/>
      <point x="345" y="501"/>
      <point x="342" y="491"/>
      <point x="336" y="482" type="curve"/>
      <point x="64" y="168" type="line"/>
      <point x="64" y="0" type="line"/>
      <point x="511" y="0" type="line"/>
      <point x="511" y="168" type="line"/>
      <point x="280" y="168" type="line"/>
    </contour>
    <contour>
      <point x="-9" y="891" type="line"/>
      <point x="576" y="891" type="line"/>
      <point x="576" y="-155" type="line"/>
      <point x="-9" y="-155" type="line"/>
    </contour>
  </outline>
</glyph>
<glyph name="three" format="1">
  <advance width="551"/>
  <unicode hex="0033"/>
  <outline>
    <contour>
      <point x="502" y="286"/>
      <point x="483" y="333"/>
      <point x="451" y="372" type="curve"/>
      <point x="483" y="411"/>
      <point x="502" y="459"/>
      <point x="502" y="514" type="curve" smooth="yes"/>
      <point x="502" y="563"/>
      <point x="488" y="607"/>
      <point x="460" y="647" type="curve" smooth="yes"/>
      <point x="432" y="687"/>
      <point x="393" y="716"/>
      <point x="346" y="732" type="curve" smooth="yes"/>
      <point x="323" y="740"/>
      <point x="298" y="744"/>
      <point x="272" y="744" type="curve" smooth="yes"/>
      <point x="208" y="744"/>
      <point x="152" y="719"/>
      <point x="110" y="677" type="curve" smooth="yes"/>
      <point x="68" y="635"/>
      <point x="42" y="577"/>
      <point x="42" y="514" type="curve"/>
      <point x="210" y="514" type="line"/>
      <point x="210" y="549"/>
      <point x="237" y="576"/>
      <point x="272" y="576" type="curve" smooth="yes"/>
      <point x="300" y="576"/>
      <point x="323" y="557"/>
      <point x="331" y="532" type="curve"/>
      <point x="333" y="527"/>
      <point x="334" y="521"/>
      <point x="334" y="514" type="curve" smooth="yes"/>
      <point x="334" y="479"/>
      <point x="307" y="444"/>
      <point x="272" y="444" type="curve" smooth="yes"/>
      <point x="224" y="444" type="line"/>
      <point x="224" y="300" type="line"/>
      <point x="272" y="300" type="line" smooth="yes"/>
      <point x="307" y="300"/>
      <point x="334" y="265"/>
      <point x="334" y="230" type="curve" smooth="yes"/>
      <point x="334" y="223"/>
      <point x="333" y="217"/>
      <point x="331" y="212" type="curve"/>
      <point x="323" y="187"/>
      <point x="300" y="168"/>
      <point x="272" y="168" type="curve" smooth="yes"/>
      <point x="237" y="168"/>
      <point x="210" y="196"/>
      <point x="210" y="231" type="curve"/>
      <point x="97" y="231" type="line"/>
      <point x="42" y="231" type="line"/>
      <point x="42" y="167"/>
      <point x="68" y="110"/>
      <point x="110" y="68" type="curve" smooth="yes"/>
      <point x="152" y="26"/>
      <point x="208" y="0"/>
      <point x="272" y="0" type="curve" smooth="yes"/>
      <point x="324" y="0"/>
      <point x="371" y="17"/>
      <point x="410" y="46" type="curve" smooth="yes"/>
      <point x="449" y="74"/>
      <point x="477" y="115"/>
      <point x="492" y="162" type="curve" smooth="yes"/>
      <point x="499" y="183"/>
      <point x="502" y="206"/>
      <point x="502" y="231" type="curve" smooth="yes"/>
    </contour>
    <contour>
      <point x="-9" y="891" type="line"/>
      <point x="556" y="891" type="line"/>
      <point x="556" y="-155" type="line"/>
      <point x="-9" y="-155" type="line"/>
    </contour>
  </outline>
</glyph>
<glyph name="four" format="1">
  <advance width="588"/>
  <unicode hex="0034"/>
  <outline>
    <contour>
      <point x="455" y="356" type="line"/>
      <point x="455" y="744" type="line"/>
      <point x="287" y="744" type="line"/>
      <point x="287" y="742" type="line"/>
      <point x="42" y="356" type="line"/>
      <point x="42" y="356" type="line"/>
      <point x="42" y="188" type="line"/>
      <point x="287" y="188" type="line"/>
      <point x="287" y="0" type="line"/>
      <point x="455" y="0" type="line"/>
      <point x="455" y="188" type="line"/>
      <point x="545" y="188" type="line"/>
      <point x="545" y="356" type="line"/>
    </contour>
    <contour>
      <point x="-9" y="891" type="line"/>
      <point x="596" y="891" type="line"/>
      <point x="596" y="-155" type="line"/>
      <point x="-9" y="-155" type="line"/>
    </contour>
  </outline>
</glyph>
<glyph name="five" format="1">
  <advance width="562"/>
  <unicode hex="0035"/>
  <outline>
    <contour>
      <point x="511" y="742" type="line"/>
      <point x="65" y="742" type="line"/>
      <point x="65" y="297" type="line"/>
      <point x="233" y="297" type="line"/>
      <point x="233" y="332"/>
      <point x="263" y="359"/>
      <point x="298" y="359" type="curve" smooth="yes"/>
      <point x="339" y="359"/>
      <point x="361" y="329"/>
      <point x="361" y="297" type="curve" smooth="yes"/>
      <point x="361" y="224" type="line" smooth="yes"/>
      <point x="361" y="189"/>
      <point x="333" y="167"/>
      <point x="298" y="167" type="curve" smooth="yes"/>
      <point x="263" y="167"/>
      <point x="233" y="195"/>
      <point x="233" y="230" type="curve"/>
      <point x="65" y="230" type="line"/>
      <point x="65" y="166"/>
      <point x="91" y="109"/>
      <point x="133" y="67" type="curve" smooth="yes"/>
      <point x="175" y="25"/>
      <point x="231" y="-1"/>
      <point x="295" y="-1" type="curve" smooth="yes"/>
      <point x="358" y="-1"/>
      <point x="416" y="20"/>
      <point x="458" y="57" type="curve" smooth="yes"/>
      <point x="500" y="94"/>
      <point x="525" y="146"/>
      <point x="525" y="210" type="curve" smooth="yes"/>
      <point x="525" y="277" type="line"/>
      <point x="525" y="280" type="line"/>
      <point x="525" y="308" type="line" smooth="yes"/>
      <point x="525" y="356"/>
      <point x="509" y="409"/>
      <point x="474" y="449" type="curve" smooth="yes"/>
      <point x="438" y="489"/>
      <point x="384" y="517"/>
      <point x="305" y="517" type="curve" smooth="yes"/>
      <point x="294" y="517"/>
      <point x="279" y="515"/>
      <point x="265" y="510" type="curve" smooth="yes"/>
      <point x="251" y="505"/>
      <point x="237" y="497"/>
      <point x="233" y="488" type="curve"/>
      <point x="233" y="574" type="line"/>
      <point x="511" y="574" type="line"/>
    </contour>
    <contour>
      <point x="-9" y="891" type="line"/>
      <point x="566" y="891" type="line"/>
      <point x="566" y="-155" type="line"/>
      <point x="-9" y="-155" type="line"/>
    </contour>
  </outline>
</glyph>
<glyph name="six" format="1">
  <advance width="552"/>
  <unicode hex="0036"/>
  <outline>
    <contour>
      <point x="504" y="230" type="line" smooth="yes"/>
      <point x="504" y="370"/>
      <point x="430" y="459"/>
      <point x="294" y="459" type="curve" smooth="yes"/>
      <point x="283" y="459"/>
      <point x="267" y="454"/>
      <point x="252" y="447" type="curve" smooth="yes"/>
      <point x="236" y="440"/>
      <point x="224" y="429"/>
      <point x="221" y="420" type="curve"/>
      <point x="221" y="526" type="line"/>
      <point x="222" y="526" type="line"/>
      <point x="222" y="561"/>
      <point x="249" y="589"/>
      <point x="284" y="589" type="curve" smooth="yes"/>
      <point x="319" y="589"/>
      <point x="346" y="561"/>
      <point x="346" y="526" type="curve"/>
      <point x="504" y="526" type="line"/>
      <point x="504" y="590"/>
      <point x="481" y="645"/>
      <point x="442" y="685" type="curve" smooth="yes"/>
      <point x="402" y="724"/>
      <point x="347" y="747"/>
      <point x="284" y="747" type="curve" smooth="yes"/>
      <point x="213" y="747"/>
      <point x="155" y="719"/>
      <point x="115" y="676" type="curve" smooth="yes"/>
      <point x="75" y="633"/>
      <point x="53" y="575"/>
      <point x="53" y="518" type="curve" smooth="yes"/>
      <point x="53" y="212" type="line" smooth="yes"/>
      <point x="53" y="151"/>
      <point x="75" y="98"/>
      <point x="115" y="60" type="curve" smooth="yes"/>
      <point x="154" y="22"/>
      <point x="212" y="-1"/>
      <point x="284" y="-1" type="curve" smooth="yes"/>
      <point x="356" y="-1"/>
      <point x="411" y="25"/>
      <point x="448" y="67" type="curve" smooth="yes"/>
      <point x="484" y="109"/>
      <point x="504" y="165"/>
      <point x="504" y="229" type="curve" smooth="yes"/>
    </contour>
    <contour>
      <point x="-9" y="891" type="line"/>
      <point x="556" y="891" type="line"/>
      <point x="556" y="-155" type="line"/>
      <point x="-9" y="-155" type="line"/>
    </contour>
  </outline>
</glyph>
<glyph name="seven" format="1">
  <advance width="562"/>
  <unicode hex="0037"/>
  <outline>
    <contour>
      <point x="45" y="744" type="line"/>
      <point x="45" y="566" type="line"/>
      <point x="339" y="566" type="line"/>
      <point x="39" y="0" type="line"/>
      <point x="217" y="0" type="line"/>
      <point x="518" y="566" type="line"/>
      <point x="518" y="744" type="line"/>
    </contour>
    <contour>
      <point x="-9" y="891" type="line"/>
      <point x="566" y="891" type="line"/>
      <point x="566" y="-155" type="line"/>
      <point x="-9" y="-155" type="line"/>
    </contour>
  </outline>
</glyph>
<glyph name="eight" format="1">
  <advance width="552"/>
  <unicode hex="0038"/>
  <outline>
    <contour>
      <point x="503" y="240" type="line" smooth="yes"/>
      <point x="503" y="268"/>
      <point x="493" y="299"/>
      <point x="479" y="328" type="curve" smooth="yes"/>
      <point x="465" y="356"/>
      <point x="447" y="383"/>
      <point x="431" y="402" type="curve"/>
      <point x="463" y="441"/>
      <point x="493" y="488"/>
      <point x="493" y="544" type="curve" smooth="yes"/>
      <point x="493" y="545" type="line" smooth="yes"/>
      <point x="493" y="608"/>
      <point x="469" y="658"/>
      <point x="430" y="692" type="curve" smooth="yes"/>
      <point x="391" y="726"/>
      <point x="336" y="744"/>
      <point x="273" y="744" type="curve" smooth="yes"/>
      <point x="210" y="744"/>
      <point x="155" y="726"/>
      <point x="116" y="692" type="curve" smooth="yes"/>
      <point x="77" y="658"/>
      <point x="53" y="608"/>
      <point x="53" y="545" type="curve" smooth="yes"/>
      <point x="53" y="544" type="line" smooth="yes"/>
      <point x="53" y="488"/>
      <point x="83" y="441"/>
      <point x="115" y="402" type="curve"/>
      <point x="99" y="383"/>
      <point x="81" y="356"/>
      <point x="67" y="328" type="curve" smooth="yes"/>
      <point x="53" y="299"/>
      <point x="43" y="268"/>
      <point x="43" y="240" type="curve" smooth="yes"/>
      <point x="43" y="239" type="line" smooth="yes"/>
      <point x="43" y="168"/>
      <point x="66" y="109"/>
      <point x="106" y="67" type="curve" smooth="yes"/>
      <point x="146" y="25"/>
      <point x="204" y="0"/>
      <point x="273" y="0" type="curve" smooth="yes"/>
      <point x="342" y="0"/>
      <point x="400" y="25"/>
      <point x="440" y="68" type="curve" smooth="yes"/>
      <point x="480" y="111"/>
      <point x="503" y="171"/>
      <point x="503" y="239" type="curve" smooth="yes"/>
    </contour>
    <contour>
      <point x="-9" y="891" type="line"/>
      <point x="556" y="891" type="line"/>
      <point x="556" y="-155" type="line"/>
      <point x="-9" y="-155" type="line"/>
    </contour>
  </outline>
</glyph>
<glyph name="nine" format="1">
  <advance width="552"/>
  <unicode hex="0039"/>
  <outline>
    <contour>
      <point x="55" y="517" type="line" smooth="yes"/>
      <point x="55" y="377"/>
      <point x="129" y="288"/>
      <point x="265" y="288" type="curve" smooth="yes"/>
      <point x="276" y="288"/>
      <point x="292" y="293"/>
      <point x="308" y="300" type="curve" smooth="yes"/>
      <point x="323" y="307"/>
      <point x="335" y="316"/>
      <point x="338" y="327" type="curve"/>
      <point x="338" y="221" type="line"/>
      <point x="337" y="221" type="line"/>
      <point x="337" y="186"/>
      <point x="310" y="158"/>
      <point x="275" y="158" type="curve" smooth="yes"/>
      <point x="240" y="158"/>
      <point x="213" y="186"/>
      <point x="213" y="221" type="curve"/>
      <point x="55" y="221" type="line"/>
      <point x="55" y="157"/>
      <point x="78" y="102"/>
      <point x="118" y="63" type="curve" smooth="yes"/>
      <point x="157" y="23"/>
      <point x="212" y="0"/>
      <point x="275" y="0" type="curve" smooth="yes"/>
      <point x="363" y="0"/>
      <point x="420" y="28"/>
      <point x="456" y="71" type="curve" smooth="yes"/>
      <point x="492" y="114"/>
      <point x="506" y="170"/>
      <point x="506" y="229" type="curve" smooth="yes"/>
      <point x="506" y="535" type="line" smooth="yes"/>
      <point x="506" y="596"/>
      <point x="484" y="650"/>
      <point x="445" y="688" type="curve" smooth="yes"/>
      <point x="405" y="726"/>
      <point x="347" y="748"/>
      <point x="275" y="748" type="curve" smooth="yes"/>
      <point x="203" y="748"/>
      <point x="148" y="723"/>
      <point x="112" y="681" type="curve" smooth="yes"/>
      <point x="75" y="639"/>
      <point x="55" y="582"/>
      <point x="55" y="518" type="curve" smooth="yes"/>
    </contour>
    <contour>
      <point x="-9" y="891" type="line"/>
      <point x="556" y="891" type="line"/>
      <point x="556" y="-155" type="line"/>
      <point x="-9" y="-155" type="line"/>
    </contour>
  </outline>
</glyph>
<glyph name="colon" format="1">
  <advance width="331"/>
  <unicode hex="003A"/>
  <outline>
    <contour>
      <point x="100" y="625" type="line"/>
      <point x="100" y="487" type="line"/>
      <point x="236" y="487" type="line"/>
      <point x="236" y="625" type="line"/>
    </contour>
    <contour>
      <point x="100" y="299" type="line"/>
      <point x="100" y="161" type="line"/>
      <point x="236" y="161" type="line"/>
      <point x="236" y="299" type="line"/>
    </contour>
    <contour>
      <point x="-9" y="891" type="line"/>
      <point x="341" y="891" type="line"/>
      <point x="341" y="-155" type="line"/>
      <point x="-9" y="-155" type="line"/>
    </contour>
  </outline>
</glyph>
<glyph name="semicolon" format="1">
  <advance width="333"/>
  <unicode hex="003B"/>
  <outline>
    <contour>
      <point x="87" y="625" type="line"/>
      <point x="87" y="487" type="line"/>
      <point x="223" y="487" type="line"/>
      <point x="223" y="625" type="line"/>
    </contour>
    <contour>
      <point x="88" y="300" type="line"/>
      <point x="88" y="162" type="line"/>
      <point x="132" y="162" type="line"/>
      <point x="109" y="69" type="line"/>
      <point x="172" y="69" type="line"/>
      <point x="225" y="162" type="line"/>
      <point x="225" y="300" type="line"/>
    </contour>
    <contour>
      <point x="-9" y="891" type="line"/>
      <point x="341" y="891" type="line"/>
      <point x="341" y="-155" type="line"/>
      <point x="-9" y="-155" type="line"/>
    </contour>
  </outline>
</glyph>
<glyph name="less" format="1">
  <advance width="631"/>
  <unicode hex="003C"/>
  <outline>
    <contour>
      <point x="558" y="744" type="line"/>
      <point x="360" y="744" type="line"/>
      <point x="60" y="380" type="line"/>
      <point x="360" y="0" type="line"/>
      <point x="558" y="0" type="line"/>
      <point x="258" y="382" type="line"/>
    </contour>
    <contour>
      <point x="-9" y="891" type="line"/>
      <point x="638" y="891" type="line"/>
      <point x="638" y="-155" type="line"/>
      <point x="-9" y="-155" type="line"/>
    </contour>
  </outline>
</glyph>
<glyph name="equal" format="1">
  <advance width="614"/>
  <unicode hex="003D"/>
  <outline>
    <contour>
      <point x="567" y="482" type="line"/>
      <point x="567" y="650" type="line"/>
      <point x="50" y="650" type="line"/>
      <point x="50" y="482" type="line"/>
    </contour>
    <contour>
      <point x="567" y="134" type="line"/>
      <point x="567" y="302" type="line"/>
      <point x="50" y="302" type="line"/>
      <point x="50" y="134" type="line"/>
    </contour>
    <contour>
      <point x="-9" y="891" type="line"/>
      <point x="621" y="891" type="line"/>
      <point x="621" y="-155" type="line"/>
      <point x="-9" y="-155" type="line"/>
    </contour>
  </outline>
</glyph>
<glyph name="greater" format="1">
  <advance width="632"/>
  <unicode hex="003E"/>
  <outline>
    <contour>
      <point x="73" y="0" type="line"/>
      <point x="271" y="0" type="line"/>
      <point x="571" y="364" type="line"/>
      <point x="271" y="744" type="line"/>
      <point x="73" y="744" type="line"/>
      <point x="373" y="362" type="line"/>
    </contour>
    <contour>
      <point x="-9" y="891" type="line"/>
      <point x="638" y="891" type="line"/>
      <point x="638" y="-155" type="line"/>
      <point x="-9" y="-155" type="line"/>
    </contour>
  </outline>
</glyph>
<glyph name="question" format="1">
  <advance width="559"/>
  <unicode hex="003F"/>
  <outline>
    <contour>
      <point x="286" y="743" type="line" smooth="yes"/>
      <point x="221" y="743"/>
      <point x="162" y="726"/>
      <point x="119" y="694" type="curve" smooth="yes"/>
      <point x="75" y="662"/>
      <point x="49" y="614"/>
      <point x="49" y="550" type="curve"/>
      <point x="205" y="512" type="line"/>
      <point x="205" y="547"/>
      <point x="235" y="576"/>
      <point x="275" y="576" type="curve" smooth="yes"/>
      <point x="310" y="576"/>
      <point x="340" y="554"/>
      <point x="340" y="519" type="curve" smooth="yes"/>
      <point x="340" y="507"/>
      <point x="335" y="495"/>
      <point x="326" y="483" type="curve"/>
      <point x="316" y="471"/>
      <point x="297" y="456"/>
      <point x="270" y="439" type="curve" smooth="yes"/>
      <point x="243" y="423"/>
      <point x="221" y="403"/>
      <point x="205" y="375" type="curve" smooth="yes"/>
      <point x="188" y="346"/>
      <point x="178" y="309"/>
      <point x="178" y="260" type="curve" smooth="yes"/>
      <point x="178" y="230" type="line"/>
      <point x="316" y="230" type="line"/>
      <point x="316" y="245"/>
      <point x="317" y="266"/>
      <point x="325" y="281" type="curve"/>
      <point x="348" y="317"/>
      <point x="375" y="339"/>
      <point x="402" y="359" type="curve" smooth="yes"/>
      <point x="415" y="368"/>
      <point x="428" y="378"/>
      <point x="441" y="387" type="curve" smooth="yes"/>
      <point x="466" y="405"/>
      <point x="486" y="429"/>
      <point x="498" y="465" type="curve" smooth="yes"/>
      <point x="504" y="482"/>
      <point x="507" y="505"/>
      <point x="507" y="532" type="curve" smooth="yes"/>
      <point x="507" y="596"/>
      <point x="484" y="648"/>
      <point x="445" y="685" type="curve" smooth="yes"/>
      <point x="405" y="721"/>
      <point x="351" y="743"/>
      <point x="287" y="743" type="curve" smooth="yes"/>
    </contour>
    <contour>
      <point x="316" y="138" type="line"/>
      <point x="179" y="138" type="line"/>
      <point x="179" y="0" type="line"/>
      <point x="316" y="0" type="line"/>
    </contour>
    <contour>
      <point x="-9" y="891" type="line"/>
      <point x="568" y="891" type="line"/>
      <point x="568" y="-155" type="line"/>
      <point x="-9" y="-155" type="line"/>
    </contour>
  </outline>
</glyph>
<glyph name="at" format="1">
  <advance width="780"/>
  <unicode hex="0040"/>
  <outline>
    <contour>
      <point x="345" y="165"/>
      <point x="310" y="186"/>
      <point x="283" y="215" type="curve" smooth="yes"/>
      <point x="255" y="244"/>
      <point x="237" y="283"/>
      <point x="237" y="319" type="curve" smooth="yes"/>
      <point x="237" y="414" type="line" smooth="yes"/>
      <point x="237" y="450"/>
      <point x="255" y="491"/>
      <point x="283" y="523" type="curve" smooth="yes"/>
      <point x="310" y="554"/>
      <point x="345" y="576"/>
      <point x="378" y="576" type="curve" smooth="yes"/>
      <point x="463" y="576"/>
      <point x="508" y="530"/>
      <point x="517" y="459" type="curve"/>
      <point x="498" y="483"/>
      <point x="485" y="502"/>
      <point x="466" y="515" type="curve"/>
      <point x="446" y="527"/>
      <point x="420" y="535"/>
      <point x="376" y="535" type="curve" smooth="yes"/>
      <point x="356" y="535"/>
      <point x="330" y="525"/>
      <point x="309" y="502" type="curve" smooth="yes"/>
      <point x="288" y="479"/>
      <point x="272" y="445"/>
      <point x="272" y="400" type="curve" smooth="yes"/>
      <point x="272" y="342" type="line" smooth="yes"/>
      <point x="272" y="313"/>
      <point x="281" y="279"/>
      <point x="300" y="254" type="curve" smooth="yes"/>
      <point x="319" y="229"/>
      <point x="346" y="210"/>
      <point x="385" y="210" type="curve" smooth="yes"/>
      <point x="429" y="210"/>
      <point x="459" y="224"/>
      <point x="480" y="239" type="curve" smooth="yes"/>
      <point x="490" y="246"/>
      <point x="498" y="253"/>
      <point x="503" y="259" type="curve"/>
      <point x="508" y="264"/>
      <point x="511" y="267"/>
      <point x="512" y="267" type="curve" smooth="yes"/>
      <point x="513" y="267"/>
      <point x="517" y="264"/>
      <point x="526" y="257" type="curve"/>
      <point x="542" y="243"/>
      <point x="569" y="232"/>
      <point x="601" y="239" type="curve" smooth="yes"/>
      <point x="633" y="246"/>
      <point x="660" y="280"/>
      <point x="670" y="308" type="curve" smooth="yes"/>
      <point x="680" y="335"/>
      <point x="685" y="366"/>
      <point x="687" y="397" type="curve" smooth="yes"/>
      <point x="688" y="412"/>
      <point x="688" y="426"/>
      <point x="688" y="438" type="curve" smooth="yes"/>
      <point x="688" y="442"/>
      <point x="689" y="435"/>
      <point x="688" y="438" type="curve"/>
      <point x="688" y="515"/>
      <point x="659" y="593"/>
      <point x="606" y="650" type="curve" smooth="yes"/>
      <point x="553" y="706"/>
      <point x="475" y="744"/>
      <point x="378" y="744" type="curve" smooth="yes"/>
      <point x="377" y="744" type="line" smooth="yes"/>
      <point x="285" y="744"/>
      <point x="211" y="707"/>
      <point x="160" y="651" type="curve" smooth="yes"/>
      <point x="108" y="595"/>
      <point x="80" y="520"/>
      <point x="79" y="447" type="curve" smooth="yes"/>
      <point x="79" y="293" type="line"/>
      <point x="83" y="216"/>
      <point x="107" y="142"/>
      <point x="155" y="88" type="curve" smooth="yes"/>
      <point x="203" y="34"/>
      <point x="276" y="-1"/>
      <point x="377" y="-1" type="curve" smooth="yes"/>
      <point x="378" y="-1" type="line" smooth="yes"/>
      <point x="423" y="-1"/>
      <point x="473" y="10"/>
      <point x="517" y="27" type="curve" smooth="yes"/>
      <point x="561" y="43"/>
      <point x="599" y="64"/>
      <point x="622" y="87" type="curve"/>
      <point x="521" y="213" type="line"/>
      <point x="496" y="196"/>
      <point x="476" y="184"/>
      <point x="456" y="176" type="curve" smooth="yes"/>
      <point x="435" y="168"/>
      <point x="411" y="165"/>
      <point x="378" y="165" type="curve" smooth="yes"/>
    </contour>
    <contour>
      <point x="-2" y="891" type="line"/>
      <point x="787" y="891" type="line"/>
      <point x="787" y="-155" type="line"/>
      <point x="-2" y="-155" type="line"/>
    </contour>
  </outline>
</glyph>
<glyph name="A" format="1">
  <advance width="782"/>
  <unicode hex="0041"/>
  <outline>
    <contour>
      <point x="520" y="0" type="line"/>
      <point x="711" y="0" type="line"/>
      <point x="493" y="744" type="line"/>
      <point x="269" y="744" type="line"/>
      <point x="51" y="0" type="line"/>
      <point x="242" y="0" type="line"/>
      <point x="308" y="196" type="line"/>
      <point x="453" y="196" type="line"/>
    </contour>
    <contour>
      <point x="-2" y="891" type="line"/>
      <point x="792" y="891" type="line"/>
      <point x="792" y="-155" type="line"/>
      <point x="-2" y="-155" type="line"/>
    </contour>
  </outline>
</glyph>
<glyph name="F" format="1">
  <advance width="542"/>
  <unicode hex="0046"/>
  <outline>
    <contour>
      <point x="502" y="744" type="line"/>
      <point x="46" y="744" type="line"/>
      <point x="46" y="0" type="line"/>
      <point x="214" y="0" type="line"/>
      <point x="214" y="288" type="line"/>
      <point x="426" y="288" type="line"/>
      <point x="426" y="456" type="line"/>
      <point x="214" y="456" type="line"/>
      <point x="214" y="576" type="line"/>
      <point x="502" y="576" type="line"/>
    </contour>
    <contour>
      <point x="-4" y="891" type="line"/>
      <point x="546" y="891" type="line"/>
      <point x="546" y="-155" type="line"/>
      <point x="-4" y="-155" type="line"/>
    </contour>
  </outline>
</glyph>
<glyph name="G" format="1">
  <advance width="669"/>
  <unicode hex="0047"/>
  <outline>
    <contour>
      <point x="340" y="398" type="line"/>
      <point x="340" y="254" type="line"/>
      <point x="419" y="254" type="line"/>
      <point x="419" y="217" type="line"/>
      <point x="404" y="190"/>
      <point x="377" y="171"/>
      <point x="330" y="172" type="curve" smooth="yes"/>
      <point x="297" y="172"/>
      <point x="268" y="187"/>
      <point x="248" y="209" type="curve" smooth="yes"/>
      <point x="227" y="231"/>
      <point x="214" y="263"/>
      <point x="214" y="299" type="curve" smooth="yes"/>
      <point x="214" y="444" type="line" smooth="yes"/>
      <point x="214" y="517"/>
      <point x="256" y="566"/>
      <point x="323" y="566" type="curve" smooth="yes"/>
      <point x="358" y="566"/>
      <point x="379" y="553"/>
      <point x="395" y="537" type="curve" smooth="yes"/>
      <point x="410" y="521"/>
      <point x="417" y="501"/>
      <point x="424" y="486" type="curve"/>
      <point x="562" y="577" type="line"/>
      <point x="555" y="587"/>
      <point x="548" y="601"/>
      <point x="539" y="619" type="curve" smooth="yes"/>
      <point x="522" y="655"/>
      <point x="489" y="693"/>
      <point x="433" y="721" type="curve"/>
      <point x="404" y="734"/>
      <point x="367" y="742"/>
      <point x="322" y="744" type="curve"/>
      <point x="321" y="744" type="line" smooth="yes"/>
      <point x="230" y="744"/>
      <point x="161" y="710"/>
      <point x="114" y="656" type="curve" smooth="yes"/>
      <point x="67" y="602"/>
      <point x="43" y="527"/>
      <point x="43" y="447" type="curve" smooth="yes"/>
      <point x="43" y="293" type="line"/>
      <point x="46" y="208"/>
      <point x="72" y="134"/>
      <point x="118" y="82" type="curve" smooth="yes"/>
      <point x="164" y="30"/>
      <point x="232" y="-1"/>
      <point x="321" y="-1" type="curve" smooth="yes"/>
      <point x="322" y="-1" type="line" smooth="yes"/>
      <point x="379" y="-1"/>
      <point x="432" y="16"/>
      <point x="476" y="41" type="curve" smooth="yes"/>
      <point x="519" y="66"/>
      <point x="555" y="102"/>
      <point x="580" y="138" type="curve"/>
      <point x="580" y="398" type="line"/>
    </contour>
    <contour>
      <point x="-4" y="891" type="line"/>
      <point x="675" y="891" type="line"/>
      <point x="675" y="-155" type="line"/>
      <point x="-4" y="-155" type="line"/>
    </contour>
  </outline>
</glyph>
<glyph name="H" format="1">
  <advance width="647"/>
  <unicode hex="0048"/>
  <outline>
    <contour>
      <point x="407" y="456" type="line"/>
      <point x="208" y="456" type="line"/>
      <point x="208" y="744" type="line"/>
      <point x="40" y="744" type="line"/>
      <point x="40" y="0" type="line"/>
      <point x="208" y="0" type="line"/>
      <point x="208" y="288" type="line"/>
      <point x="407" y="288" type="line"/>
      <point x="407" y="0" type="line"/>
      <point x="575" y="0" type="line"/>
      <point x="575" y="744" type="line"/>
      <point x="407" y="744" type="line"/>
    </contour>
    <contour>
      <point x="-4" y="891" type="line"/>
      <point x="656" y="891" type="line"/>
      <point x="656" y="-155" type="line"/>
      <point x="-4" y="-155" type="line"/>
    </contour>
  </outline>
</glyph>
<glyph name="I" format="1">
  <advance width="290"/>
  <unicode hex="0049"/>
  <outline>
    <contour>
      <point x="228" y="744" type="line"/>
      <point x="60" y="744" type="line"/>
      <point x="60" y="0" type="line"/>
      <point x="228" y="0" type="line"/>
    </contour>
    <contour>
      <point x="-4" y="891" type="line"/>
      <point x="296" y="891" type="line"/>
      <point x="296" y="-155" type="line"/>
      <point x="-4" y="-155" type="line"/>
    </contour>
  </outline>
</glyph>
<glyph name="J" format="1">
  <advance width="601"/>
  <unicode hex="004A"/>
  <outline>
    <contour>
      <point x="360" y="744" type="line"/>
      <point x="360" y="241" type="line" smooth="yes"/>
      <point x="360" y="206"/>
      <point x="335" y="178"/>
      <point x="300" y="178" type="curve" smooth="yes"/>
      <point x="265" y="178"/>
      <point x="241" y="206"/>
      <point x="241" y="241" type="curve" smooth="yes"/>
      <point x="241" y="305" type="line"/>
      <point x="70" y="305" type="line"/>
      <point x="70" y="231" type="line" smooth="yes"/>
      <point x="70" y="154"/>
      <point x="96" y="96"/>
      <point x="138" y="58" type="curve" smooth="yes"/>
      <point x="180" y="20"/>
      <point x="236" y="0"/>
      <point x="300" y="0" type="curve" smooth="yes"/>
      <point x="363" y="0"/>
      <point x="421" y="19"/>
      <point x="463" y="57" type="curve" smooth="yes"/>
      <point x="505" y="95"/>
      <point x="531" y="151"/>
      <point x="531" y="227" type="curve" smooth="yes"/>
      <point x="531" y="744" type="line"/>
    </contour>
    <contour>
      <point x="-4" y="891" type="line"/>
      <point x="610" y="891" type="line"/>
      <point x="610" y="-155" type="line"/>
      <point x="-4" y="-155" type="line"/>
    </contour>
  </outline>
</glyph>
<glyph name="L" format="1">
  <advance width="492"/>
  <unicode hex="004C"/>
  <outline>
    <contour>
      <point x="238" y="744" type="line"/>
      <point x="70" y="744" type="line"/>
      <point x="70" y="0" type="line"/>
      <point x="437" y="0" type="line"/>
      <point x="437" y="168" type="line"/>
      <point x="238" y="168" type="line"/>
    </contour>
    <contour>
      <point x="-4" y="891" type="line"/>
      <point x="501" y="891" type="line"/>
      <point x="501" y="-155" type="line"/>
      <point x="-4" y="-155" type="line"/>
    </contour>
  </outline>
</glyph>
<glyph name="P" format="1">
  <advance width="560"/>
  <unicode hex="0050"/>
  <outline>
    <contour>
      <point x="286" y="744" type="line"/>
      <point x="60" y="744" type="line"/>
      <point x="60" y="0" type="line"/>
      <point x="231" y="0" type="line"/>
      <point x="231" y="262" type="line"/>
      <point x="286" y="262" type="line"/>
      <point x="287" y="262" type="line" smooth="yes"/>
      <point x="351" y="262"/>
      <point x="404" y="286"/>
      <point x="441" y="329" type="curve" smooth="yes"/>
      <point x="477" y="372"/>
      <point x="498" y="431"/>
      <point x="498" y="503" type="curve" smooth="yes"/>
      <point x="498" y="576"/>
      <point x="477" y="637"/>
      <point x="441" y="679" type="curve" smooth="yes"/>
      <point x="404" y="721"/>
      <point x="351" y="744"/>
      <point x="287" y="744" type="curve" smooth="yes"/>
    </contour>
    <contour>
      <point x="-4" y="891" type="line"/>
      <point x="564" y="891" type="line"/>
      <point x="564" y="-155" type="line"/>
      <point x="-4" y="-155" type="line"/>
    </contour>
  </outline>
</glyph>
<glyph name="Q" format="1">
  <advance width="712"/>
  <unicode hex="0051"/>
  <outline>
    <contour>
      <point x="683" y="2" type="line"/>
      <point x="683" y="176" type="line"/>
      <point x="581" y="171" type="line"/>
      <point x="604" y="210"/>
      <point x="608" y="240"/>
      <point x="609" y="284" type="curve" smooth="yes"/>
      <point x="609" y="306" type="line"/>
      <point x="609" y="356" type="line"/>
      <point x="609" y="448" type="line"/>
      <point x="609" y="470" type="line"/>
      <point x="602" y="541"/>
      <point x="583" y="604"/>
      <point x="536" y="655" type="curve" smooth="yes"/>
      <point x="480" y="712"/>
      <point x="408" y="744"/>
      <point x="331" y="744" type="curve" smooth="yes"/>
      <point x="330" y="744" type="line" smooth="yes"/>
      <point x="251" y="744"/>
      <point x="180" y="712"/>
      <point x="125" y="655" type="curve" smooth="yes"/>
      <point x="77" y="604"/>
      <point x="57" y="541"/>
      <point x="52" y="470" type="curve"/>
      <point x="52" y="296" type="line" smooth="yes"/>
      <point x="52" y="216"/>
      <point x="72" y="144"/>
      <point x="125" y="88" type="curve" smooth="yes"/>
      <point x="152" y="60"/>
      <point x="177" y="37"/>
      <point x="209" y="22" type="curve" smooth="yes"/>
      <point x="240" y="7"/>
      <point x="278" y="-1"/>
      <point x="330" y="-1" type="curve" smooth="yes"/>
      <point x="331" y="-1" type="line" smooth="yes"/>
      <point x="364" y="-1"/>
      <point x="392" y="-1"/>
      <point x="416" y="0" type="curve"/>
      <point x="439" y="0"/>
      <point x="458" y="0"/>
      <point x="471" y="0" type="curve" smooth="yes"/>
      <point x="593" y="0" type="line"/>
    </contour>
    <contour>
      <point x="-4" y="891" type="line"/>
      <point x="716" y="891" type="line"/>
      <point x="716" y="-155" type="line"/>
      <point x="-4" y="-155" type="line"/>
    </contour>
  </outline>
</glyph>
<glyph name="R" format="1">
  <advance width="582"/>
  <unicode hex="0052"/>
  <outline>
    <contour>
      <point x="372" y="297" type="line"/>
      <point x="389" y="297"/>
      <point x="424" y="315"/>
      <point x="454" y="351" type="curve" smooth="yes"/>
      <point x="484" y="386"/>
      <point x="509" y="438"/>
      <point x="509" y="505" type="curve" smooth="yes"/>
      <point x="509" y="569"/>
      <point x="496" y="629"/>
      <point x="462" y="673" type="curve" smooth="yes"/>
      <point x="428" y="716"/>
      <point x="372" y="744"/>
      <point x="287" y="744" type="curve" smooth="yes"/>
      <point x="286" y="744" type="line"/>
      <point x="60" y="744" type="line"/>
      <point x="60" y="0" type="line"/>
      <point x="228" y="0" type="line"/>
      <point x="228" y="242" type="line"/>
      <point x="230" y="242" type="line"/>
      <point x="330" y="0" type="line"/>
      <point x="523" y="0" type="line"/>
    </contour>
    <contour>
      <point x="-4" y="891" type="line"/>
      <point x="591" y="891" type="line"/>
      <point x="591" y="-155" type="line"/>
      <point x="-4" y="-155" type="line"/>
    </contour>
  </outline>
</glyph>
<glyph name="T" format="1">
  <advance width="603"/>
  <unicode hex="0054"/>
  <outline>
    <contour>
      <point x="44" y="744" type="line"/>
      <point x="44" y="576" type="line"/>
      <point x="213" y="576" type="line"/>
      <point x="213" y="0" type="line"/>
      <point x="381" y="0" type="line"/>
      <point x="381" y="576" type="line"/>
      <point x="550" y="576" type="line"/>
      <point x="550" y="744" type="line"/>
    </contour>
    <contour>
      <point x="-4" y="891" type="line"/>
      <point x="606" y="891" type="line"/>
      <point x="606" y="-155" type="line"/>
      <point x="-4" y="-155" type="line"/>
    </contour>
  </outline>
</glyph>
<glyph name="U" format="1">
  <advance width="652"/>
  <unicode hex="0055"/>
  <outline>
    <contour>
      <point x="425" y="745" type="line"/>
      <point x="425" y="310" type="line" smooth="yes"/>
      <point x="425" y="274"/>
      <point x="418" y="241"/>
      <point x="403" y="217" type="curve" smooth="yes"/>
      <point x="387" y="193"/>
      <point x="363" y="178"/>
      <point x="330" y="178" type="curve" smooth="yes"/>
      <point x="297" y="178"/>
      <point x="273" y="193"/>
      <point x="257" y="217" type="curve" smooth="yes"/>
      <point x="241" y="241"/>
      <point x="234" y="274"/>
      <point x="234" y="310" type="curve" smooth="yes"/>
      <point x="234" y="745" type="line"/>
      <point x="61" y="745" type="line"/>
      <point x="61" y="297" type="line" smooth="yes"/>
      <point x="61" y="218"/>
      <point x="79" y="144"/>
      <point x="122" y="89" type="curve" smooth="yes"/>
      <point x="165" y="33"/>
      <point x="232" y="-1"/>
      <point x="329" y="0" type="curve" smooth="yes"/>
      <point x="330" y="0" type="line" smooth="yes"/>
      <point x="418" y="-1"/>
      <point x="485" y="29"/>
      <point x="530" y="82" type="curve" smooth="yes"/>
      <point x="574" y="134"/>
      <point x="598" y="209"/>
      <point x="598" y="297" type="curve" smooth="yes"/>
      <point x="598" y="745" type="line"/>
    </contour>
    <contour>
      <point x="-4" y="891" type="line"/>
      <point x="661" y="891" type="line"/>
      <point x="661" y="-155" type="line"/>
      <point x="-4" y="-155" type="line"/>
    </contour>
  </outline>
</glyph>
<glyph name="V" format="1">
  <advance width="693"/>
  <unicode hex="0056"/>
  <outline>
    <contour>
      <point x="347" y="408" type="line"/>
      <point x="235" y="744" type="line"/>
      <point x="37" y="744" type="line"/>
      <point x="266" y="0" type="line"/>
      <point x="416" y="0" type="line"/>
      <point x="655" y="744" type="line"/>
      <point x="457" y="744" type="line"/>
    </contour>
    <contour>
      <point x="-4" y="891" type="line"/>
      <point x="696" y="891" type="line"/>
      <point x="696" y="-155" type="line"/>
      <point x="-4" y="-155" type="line"/>
    </contour>
  </outline>
</glyph>
<glyph name="W" format="1">
  <advance width="980"/>
  <unicode hex="0057"/>
  <outline>
    <contour>
      <point x="636" y="410" type="line"/>
      <point x="558" y="744" type="line"/>
      <point x="417" y="744" type="line"/>
      <point x="339" y="410" type="line"/>
      <point x="260" y="744" type="line"/>
      <point x="62" y="744" type="line"/>
      <point x="253" y="0" type="line"/>
      <point x="414" y="0" type="line"/>
      <point x="492" y="314" type="line"/>
      <point x="560" y="0" type="line"/>
      <point x="711" y="0" type="line"/>
      <point x="922" y="744" type="line"/>
      <point x="714" y="744" type="line"/>
    </contour>
    <contour>
      <point x="-4" y="891" type="line"/>
      <point x="986" y="891" type="line"/>
      <point x="986" y="-155" type="line"/>
      <point x="-4" y="-155" type="line"/>
    </contour>
  </outline>
</glyph>
<glyph name="Y" format="1">
  <advance width="621"/>
  <unicode hex="0059"/>
  <outline>
    <contour>
      <point x="389" y="744" type="line"/>
      <point x="303" y="568" type="line"/>
      <point x="216" y="744" type="line"/>
      <point x="28" y="744" type="line"/>
      <point x="219" y="372" type="line"/>
      <point x="219" y="0" type="line"/>
      <point x="377" y="0" type="line"/>
      <point x="377" y="372" type="line"/>
      <point x="577" y="744" type="line"/>
    </contour>
    <contour>
      <point x="-4" y="891" type="line"/>
      <point x="625" y="891" type="line"/>
      <point x="625" y="-155" type="line"/>
      <point x="-4" y="-155" type="line"/>
    </contour>
  </outline>
</glyph>
<glyph name="Z" format="1">
  <advance width="630"/>
  <unicode hex="005A"/>
  <outline>
    <contour>
      <point x="76" y="744" type="line"/>
      <point x="76" y="576" type="line"/>
      <point x="345" y="576" type="line"/>
      <point x="76" y="168" type="line"/>
      <point x="76" y="0" type="line"/>
      <point x="551" y="0" type="line"/>
      <point x="551" y="168" type="line"/>
      <point x="291" y="168" type="line"/>
      <point x="551" y="576" type="line"/>
      <point x="551" y="744" type="line"/>
    </contour>
    <contour>
      <point x="-4" y="891" type="line"/>
      <point x="636" y="891" type="line"/>
      <point x="636" y="-155" type="line"/>
      <point x="-4" y="-155" type="line"/>
    </contour>
  </outline>
</glyph>
<glyph name="bracketleft" format="1">
  <advance width="453"/>
  <unicode hex="005B"/>
  <outline>
    <contour>
      <point x="58" y="744" type="line"/>
      <point x="58" y="0" type="line"/>
      <point x="394" y="0" type="line"/>
      <point x="394" y="157" type="line"/>
      <point x="226" y="157" type="line"/>
      <point x="226" y="587" type="line"/>
      <point x="394" y="587" type="line"/>
      <point x="394" y="744" type="line"/>
    </contour>
    <contour>
      <point x="-9" y="891" type="line"/>
      <point x="458" y="891" type="line"/>
      <point x="458" y="-155" type="line"/>
      <point x="-9" y="-155" type="line"/>
    </contour>
  </outline>
</glyph>
<glyph name="backslash" format="1">
  <advance width="484"/>
  <unicode hex="005C"/>
  <outline>
    <contour>
      <point x="279" y="0" type="line"/>
      <point x="447" y="0" type="line"/>
      <point x="216" y="746" type="line"/>
      <point x="48" y="746" type="line"/>
    </contour>
    <contour>
      <point x="-9" y="891" type="line"/>
      <point x="488" y="891" type="line"/>
      <point x="488" y="-155" type="line"/>
      <point x="-9" y="-155" type="line"/>
    </contour>
  </outline>
</glyph>
<glyph name="bracketright" format="1">
  <advance width="451"/>
  <unicode hex="005D"/>
  <outline>
    <contour>
      <point x="387" y="0" type="line"/>
      <point x="387" y="744" type="line"/>
      <point x="51" y="744" type="line"/>
      <point x="51" y="587" type="line"/>
      <point x="219" y="587" type="line"/>
      <point x="219" y="157" type="line"/>
      <point x="51" y="157" type="line"/>
      <point x="51" y="0" type="line"/>
    </contour>
    <contour>
      <point x="-9" y="891" type="line"/>
      <point x="458" y="891" type="line"/>
      <point x="458" y="-155" type="line"/>
      <point x="-9" y="-155" type="line"/>
    </contour>
  </outline>
</glyph>
<glyph name="underscore" format="1">
  <advance width="608"/>
  <unicode hex="005F"/>
  <outline>
    <contour>
      <point x="566" y="-48" type="line"/>
      <point x="566" y="70" type="line"/>
      <point x="49" y="70" type="line"/>
      <point x="49" y="-48" type="line"/>
    </contour>
    <contour>
      <point x="-9" y="891" type="line"/>
      <point x="618" y="891" type="line"/>
      <point x="618" y="-155" type="line"/>
      <point x="-9" y="-155" type="line"/>
    </contour>
  </outline>
</glyph>
<glyph name="b" format="1">
  <advance width="540"/>
  <unicode hex="0062"/>
  <outline>
    <contour>
      <point x="360" y="391"/>
      <point x="389" y="409"/>
      <point x="411" y="440" type="curve" smooth="yes"/>
      <point x="433" y="471"/>
      <point x="448" y="514"/>
      <point x="448" y="566" type="curve" smooth="yes"/>
      <point x="448" y="615"/>
      <point x="431" y="659"/>
      <point x="396" y="691" type="curve" smooth="yes"/>
      <point x="361" y="723"/>
      <point x="306" y="743"/>
      <point x="233" y="743" type="curve" smooth="yes"/>
      <point x="228" y="743" type="line"/>
      <point x="238" y="743" type="line"/>
      <point x="60" y="743" type="line"/>
      <point x="60" y="-1" type="line"/>
      <point x="298" y="-1" type="line"/>
      <point x="303" y="-1" type="line" smooth="yes"/>
      <point x="368" y="-1"/>
      <point x="418" y="23"/>
      <point x="451" y="61" type="curve" smooth="yes"/>
      <point x="483" y="99"/>
      <point x="500" y="149"/>
      <point x="500" y="204" type="curve" smooth="yes"/>
      <point x="500" y="241"/>
      <point x="489" y="289"/>
      <point x="463" y="326" type="curve" smooth="yes"/>
      <point x="437" y="363"/>
      <point x="396" y="391"/>
      <point x="336" y="391" type="curve"/>
    </contour>
    <contour>
      <point x="-3" y="891" type="line"/>
      <point x="550" y="891" type="line"/>
      <point x="550" y="-155" type="line"/>
      <point x="-3" y="-155" type="line"/>
    </contour>
  </outline>
</glyph>
<glyph name="c" format="1">
  <advance width="656"/>
  <unicode hex="0063"/>
  <outline>
    <contour>
      <point x="260" y="170"/>
      <point x="215" y="226"/>
      <point x="215" y="299" type="curve" smooth="yes"/>
      <point x="215" y="444" type="line" smooth="yes"/>
      <point x="215" y="517"/>
      <point x="259" y="571"/>
      <point x="327" y="576" type="curve"/>
      <point x="355" y="577"/>
      <point x="381" y="564"/>
      <point x="401" y="544" type="curve" smooth="yes"/>
      <point x="421" y="524"/>
      <point x="435" y="497"/>
      <point x="443" y="473" type="curve"/>
      <point x="588" y="554" type="line"/>
      <point x="573" y="599"/>
      <point x="549" y="647"/>
      <point x="507" y="683" type="curve" smooth="yes"/>
      <point x="465" y="719"/>
      <point x="407" y="744"/>
      <point x="326" y="744" type="curve" smooth="yes"/>
      <point x="325" y="744" type="line" smooth="yes"/>
      <point x="233" y="744"/>
      <point x="164" y="707"/>
      <point x="118" y="651" type="curve" smooth="yes"/>
      <point x="72" y="595"/>
      <point x="48" y="520"/>
      <point x="47" y="447" type="curve" smooth="yes"/>
      <point x="47" y="293" type="line"/>
      <point x="51" y="216"/>
      <point x="69" y="142"/>
      <point x="113" y="88" type="curve" smooth="yes"/>
      <point x="156" y="34"/>
      <point x="223" y="-1"/>
      <point x="324" y="-1" type="curve" smooth="yes"/>
      <point x="325" y="-1" type="line" smooth="yes"/>
      <point x="416" y="-1"/>
      <point x="476" y="29"/>
      <point x="516" y="65" type="curve" smooth="yes"/>
      <point x="556" y="101"/>
      <point x="576" y="142"/>
      <point x="588" y="166" type="curve"/>
      <point x="443" y="247" type="line"/>
      <point x="423" y="200"/>
      <point x="385" y="161"/>
      <point x="328" y="165" type="curve" smooth="yes"/>
    </contour>
    <contour>
      <point x="-5" y="891" type="line"/>
      <point x="664" y="891" type="line"/>
      <point x="664" y="-155" type="line"/>
      <point x="-5" y="-155" type="line"/>
    </contour>
  </outline>
</glyph>
<glyph name="d" format="1">
  <advance width="649"/>
  <unicode hex="0064"/>
  <outline>
    <contour>
      <point x="571" y="477"/>
      <point x="542" y="572"/>
      <point x="483" y="638" type="curve" smooth="yes"/>
      <point x="424" y="704"/>
      <point x="336" y="744"/>
      <point x="220" y="744" type="curve" smooth="yes"/>
      <point x="70" y="744" type="line"/>
      <point x="70" y="0" type="line"/>
      <point x="220" y="0" type="line"/>
      <point x="242" y="0" type="line" smooth="yes"/>
      <point x="363" y="0"/>
      <point x="446" y="43"/>
      <point x="498" y="111" type="curve" smooth="yes"/>
      <point x="550" y="179"/>
      <point x="571" y="272"/>
      <point x="571" y="372" type="curve" smooth="yes"/>
    </contour>
    <contour>
      <point x="-4" y="891" type="line"/>
      <point x="656" y="891" type="line"/>
      <point x="656" y="-155" type="line"/>
      <point x="-4" y="-155" type="line"/>
    </contour>
  </outline>
</glyph>
<glyph name="e" format="1">
  <advance width="571"/>
  <unicode hex="0065"/>
  <outline>
    <contour>
      <point x="516" y="744" type="line"/>
      <point x="60" y="744" type="line"/>
      <point x="60" y="0" type="line"/>
      <point x="516" y="0" type="line"/>
      <point x="516" y="168" type="line"/>
      <point x="228" y="168" type="line"/>
      <point x="228" y="288" type="line"/>
      <point x="440" y="288" type="line"/>
      <point x="440" y="456" type="line"/>
      <point x="228" y="456" type="line"/>
      <point x="228" y="576" type="line"/>
      <point x="516" y="576" type="line"/>
    </contour>
    <contour>
      <point x="-4" y="891" type="line"/>
      <point x="581" y="891" type="line"/>
      <point x="581" y="-155" type="line"/>
      <point x="-4" y="-155" type="line"/>
    </contour>
  </outline>
</glyph>
<glyph name="k" format="1">
  <advance width="623"/>
  <unicode hex="006B"/>
  <outline>
    <contour>
      <point x="349" y="744" type="line"/>
      <point x="228" y="571" type="line"/>
      <point x="228" y="744" type="line"/>
      <point x="60" y="744" type="line"/>
      <point x="60" y="0" type="line"/>
      <point x="228" y="0" type="line"/>
      <point x="228" y="161" type="line"/>
      <point x="348" y="0" type="line"/>
      <point x="556" y="0" type="line"/>
      <point x="280" y="371" type="line"/>
      <point x="557" y="744" type="line"/>
    </contour>
    <contour>
      <point x="-4" y="891" type="line"/>
      <point x="630" y="891" type="line"/>
      <point x="630" y="-155" type="line"/>
      <point x="-4" y="-155" type="line"/>
    </contour>
  </outline>
</glyph>
<glyph name="l" format="1">
  <advance width="492"/>
  <unicode hex="006C"/>
  <outline>
    <contour>
      <point x="238" y="744" type="line"/>
      <point x="70" y="744" type="line"/>
      <point x="70" y="0" type="line"/>
      <point x="437" y="0" type="line"/>
      <point x="437" y="168" type="line"/>
      <point x="238" y="168" type="line"/>
    </contour>
    <contour>
      <point x="-4" y="891" type="line"/>
      <point x="501" y="891" type="line"/>
      <point x="501" y="-155" type="line"/>
      <point x="-4" y="-155" type="line"/>
    </contour>
  </outline>
</glyph>
<glyph name="m" format="1">
  <advance width="798"/>
  <unicode hex="006D"/>
  <outline>
    <contour>
      <point x="560" y="744" type="line"/>
      <point x="560" y="744" type="line"/>
      <point x="405" y="312" type="line"/>
      <point x="251" y="744" type="line"/>
      <point x="80" y="744" type="line"/>
      <point x="80" y="0" type="line"/>
      <point x="258" y="0" type="line"/>
      <point x="258" y="268" type="line"/>
      <point x="351" y="0" type="line"/>
      <point x="459" y="0" type="line"/>
      <point x="550" y="260" type="line"/>
      <point x="550" y="0" type="line"/>
      <point x="728" y="0" type="line"/>
      <point x="728" y="744" type="line"/>
      <point x="728" y="744" type="line"/>
    </contour>
    <contour>
      <point x="-4" y="891" type="line"/>
      <point x="804" y="891" type="line"/>
      <point x="804" y="-155" type="line"/>
      <point x="-4" y="-155" type="line"/>
    </contour>
  </outline>
</glyph>
<glyph name="n" format="1">
  <advance width="652"/>
  <unicode hex="006E"/>
  <outline>
    <contour>
      <point x="425" y="379" type="line"/>
      <point x="226" y="744" type="line"/>
      <point x="55" y="744" type="line"/>
      <point x="55" y="0" type="line"/>
      <point x="233" y="0" type="line"/>
      <point x="233" y="366" type="line"/>
      <point x="433" y="0" type="line"/>
      <point x="603" y="0" type="line"/>
      <point x="603" y="744" type="line"/>
      <point x="425" y="744" type="line"/>
    </contour>
    <contour>
      <point x="-4" y="891" type="line"/>
      <point x="659" y="891" type="line"/>
      <point x="659" y="-155" type="line"/>
      <point x="-4" y="-155" type="line"/>
    </contour>
  </outline>
</glyph>
<glyph name="o" format="1">
  <advance width="654"/>
  <unicode hex="006F"/>
  <outline>
    <contour>
      <point x="612" y="470" type="line"/>
      <point x="611" y="538"/>
      <point x="587" y="604"/>
      <point x="539" y="655" type="curve" smooth="yes"/>
      <point x="484" y="712"/>
      <point x="413" y="744"/>
      <point x="334" y="744" type="curve" smooth="yes"/>
      <point x="333" y="744" type="line" smooth="yes"/>
      <point x="254" y="744"/>
      <point x="184" y="712"/>
      <point x="128" y="655" type="curve" smooth="yes"/>
      <point x="81" y="604"/>
      <point x="55" y="534"/>
      <point x="55" y="470" type="curve" smooth="yes"/>
      <point x="55" y="296" type="line" smooth="yes"/>
      <point x="56" y="216"/>
      <point x="76" y="144"/>
      <point x="128" y="88" type="curve" smooth="yes"/>
      <point x="184" y="31"/>
      <point x="256" y="-1"/>
      <point x="333" y="-1" type="curve" smooth="yes"/>
      <point x="334" y="-1" type="line" smooth="yes"/>
      <point x="413" y="-1"/>
      <point x="484" y="30"/>
      <point x="539" y="89" type="curve" smooth="yes"/>
      <point x="592" y="145"/>
      <point x="612" y="224"/>
      <point x="612" y="296" type="curve" smooth="yes"/>
    </contour>
    <contour>
      <point x="-4" y="891" type="line"/>
      <point x="666" y="891" type="line"/>
      <point x="666" y="-155" type="line"/>
      <point x="-4" y="-155" type="line"/>
    </contour>
  </outline>
</glyph>
<glyph name="s" format="1">
  <advance width="603"/>
  <unicode hex="0073"/>
  <outline>
    <contour>
      <point x="547" y="187" type="line" smooth="yes"/>
      <point x="547" y="263"/>
      <point x="518" y="316"/>
      <point x="474" y="360" type="curve" smooth="yes"/>
      <point x="430" y="404"/>
      <point x="371" y="436"/>
      <point x="310" y="471" type="curve"/>
      <point x="266" y="503"/>
      <point x="246" y="518"/>
      <point x="246" y="543" type="curve" smooth="yes"/>
      <point x="246" y="576"/>
      <point x="272" y="593"/>
      <point x="299" y="593" type="curve" smooth="yes"/>
      <point x="324" y="593"/>
      <point x="344" y="581"/>
      <point x="358" y="566" type="curve" smooth="yes"/>
      <point x="372" y="550"/>
      <point x="379" y="531"/>
      <point x="383" y="516" type="curve"/>
      <point x="530" y="574" type="line"/>
      <point x="523" y="614"/>
      <point x="503" y="657"/>
      <point x="465" y="689" type="curve" smooth="yes"/>
      <point x="427" y="721"/>
      <point x="371" y="744"/>
      <point x="298" y="744" type="curve" smooth="yes"/>
      <point x="237" y="743"/>
      <point x="177" y="725"/>
      <point x="133" y="692" type="curve" smooth="yes"/>
      <point x="89" y="659"/>
      <point x="60" y="609"/>
      <point x="60" y="544" type="curve" smooth="yes"/>
      <point x="60" y="473"/>
      <point x="86" y="430"/>
      <point x="130" y="393" type="curve"/>
      <point x="151" y="374"/>
      <point x="177" y="357"/>
      <point x="206" y="340" type="curve" smooth="yes"/>
      <point x="235" y="323"/>
      <point x="266" y="303"/>
      <point x="300" y="280" type="curve" smooth="yes"/>
      <point x="331" y="259"/>
      <point x="348" y="241"/>
      <point x="349" y="218" type="curve" smooth="yes"/>
      <point x="350" y="181"/>
      <point x="323" y="165"/>
      <point x="300" y="162" type="curve" smooth="yes"/>
      <point x="273" y="158"/>
      <point x="249" y="177"/>
      <point x="233" y="197" type="curve"/>
      <point x="225" y="206"/>
      <point x="219" y="215"/>
      <point x="215" y="224" type="curve"/>
      <point x="210" y="233"/>
      <point x="209" y="237"/>
      <point x="210" y="238" type="curve"/>
      <point x="50" y="171" type="line"/>
      <point x="63" y="118"/>
      <point x="94" y="75"/>
      <point x="137" y="46" type="curve" smooth="yes"/>
      <point x="180" y="17"/>
      <point x="233" y="0"/>
      <point x="293" y="0" type="curve" smooth="yes"/>
      <point x="370" y="0"/>
      <point x="432" y="19"/>
      <point x="476" y="51" type="curve" smooth="yes"/>
      <point x="519" y="82"/>
      <point x="544" y="125"/>
      <point x="547" y="173" type="curve"/>
    </contour>
    <contour>
      <point x="-4" y="891" type="line"/>
      <point x="606" y="891" type="line"/>
      <point x="606" y="-155" type="line"/>
      <point x="-4" y="-155" type="line"/>
    </contour>
  </outline>
</glyph>
<glyph name="x" format="1">
  <advance width="656"/>
  <unicode hex="0078"/>
  <outline>
    <contour>
      <point x="429" y="744" type="line"/>
      <point x="333" y="548" type="line"/>
      <point x="237" y="744" type="line"/>
      <point x="49" y="744" type="line"/>
      <point x="249" y="372" type="line"/>
      <point x="49" y="0" type="line"/>
      <point x="237" y="0" type="line"/>
      <point x="333" y="196" type="line"/>
      <point x="429" y="0" type="line"/>
      <point x="617" y="0" type="line"/>
      <point x="417" y="372" type="line"/>
      <point x="617" y="744" type="line"/>
    </contour>
    <contour>
      <point x="-4" y="891" type="line"/>
      <point x="664" y="891" type="line"/>
      <point x="664" y="-155" type="line"/>
      <point x="-4" y="-155" type="line"/>
    </contour>
  </outline>
</glyph>
<glyph name="z" format="1">
  <advance width="630"/>
  <unicode hex="007A"/>
  <outline>
    <contour>
      <point x="76" y="744" type="line"/>
      <point x="76" y="576" type="line"/>
      <point x="345" y="576" type="line"/>
      <point x="76" y="168" type="line"/>
      <point x="76" y="0" type="line"/>
      <point x="551" y="0" type="line"/>
      <point x="551" y="168" type="line"/>
      <point x="291" y="168" type="line"/>
      <point x="551" y="576" type="line"/>
      <point x="551" y="744" type="line"/>
    </contour>
    <contour>
      <point x="-4" y="891" type="line"/>
      <point x="636" y="891" type="line"/>
      <point x="636" y="-155" type="line"/>
      <point x="-4" y="-155" type="line"/>
    </contour>
  </outline>
</glyph>
<glyph name="bar" format="1">
  <advance width="478"/>
  <unicode hex="007C"/>
  <outline>
    <contour>
      <point x="318" y="744" type="line"/>
      <point x="150" y="744" type="line"/>
      <point x="150" y="-7" type="line"/>
      <point x="318" y="-7" type="line"/>
    </contour>
    <contour>
      <point x="-9" y="891" type="line"/>
      <point x="488" y="891" type="line"/>
      <point x="488" y="-155" type="line"/>
      <point x="-9" y="-155" type="line"/>
    </contour>
  </outline>
</glyph>
<glyph name="endash" format="1">
  <advance width="651"/>
  <unicode hex="2013"/>
  <outline>
    <contour>
      <point x="580" y="301" type="line"/>
      <point x="580" y="469" type="line"/>
      <point x="63" y="469" type="line"/>
      <point x="63" y="301" type="line"/>
    </contour>
    <contour>
      <point x="-9" y="891" type="line"/>
      <point x="654" y="891" type="line"/>
      <point x="654" y="-155" type="line"/>
      <point x="-9" y="-155" type="line"/>
    </contour>
  </outline>
</glyph>
<glyph name="emdash" format="1">
  <advance width="812"/>
  <unicode hex="2014"/>
  <outline>
    <contour>
      <point x="743" y="301" type="line"/>
      <point x="743" y="469" type="line"/>
      <point x="76" y="469" type="line"/>
      <point x="76" y="301" type="line"/>
    </contour>
    <contour>
      <point x="-9" y="891" type="line"/>
      <point x="818" y="891" type="line"/>
      <point x="818" y="-155" type="line"/>
      <point x="-9" y="-155" type="line"/>
    </contour>
  </outline>
</glyph>
<glyph name="quotedblleft" format="1">
  <advance width="286"/>
  <unicode hex="201C"/>
  <outline>
    <contour>
      <point x="20" y="744" type="line"/>
      <point x="30" y="607" type="line"/>
      <point x="111" y="607" type="line"/>
      <point x="121" y="744" type="line"/>
    </contour>
    <contour>
      <point x="140" y="744" type="line"/>
      <point x="150" y="607" type="line"/>
      <point x="231" y="607" type="line"/>
      <point x="241" y="744" type="line"/>
    </contour>
    <contour>
      <point x="-9" y="891" type="line"/>
      <point x="293" y="891" type="line"/>
      <point x="293" y="-155" type="line"/>
      <point x="-9" y="-155" type="line"/>
    </contour>
  </outline>
</glyph>
<glyph name="bullet" format="1">
  <advance width="283"/>
  <unicode hex="2022"/>
  <outline>
    <contour>
      <point x="217" y="315" type="line"/>
      <point x="217" y="453" type="line"/>
      <point x="80" y="453" type="line"/>
      <point x="80" y="315" type="line"/>
    </contour>
    <contour>
      <point x="-9" y="891" type="line"/>
      <point x="293" y="891" type="line"/>
      <point x="293" y="-155" type="line"/>
      <point x="-9" y="-155" type="line"/>
    </contour>
  </outline>
</glyph>
<glyph name="fraction" format="1">
  <advance width="483"/>
  <unicode hex="2044"/>
  <outline>
    <contour>
      <point x="432" y="744" type="line"/>
      <point x="264" y="744" type="line"/>
      <point x="34" y="0" type="line"/>
      <point x="202" y="0" type="line"/>
    </contour>
    <contour>
      <point x="-9" y="821" type="line"/>
      <point x="488" y="821" type="line"/>
      <point x="488" y="-85" type="line"/>
      <point x="-9" y="-85" type="line"/>
    </contour>
  </outline>
</glyph>
